<?xml version="1.0" encoding="utf-8"?>
<!-- Generator: Adobe Illustrator 21.0.2, SVG Export Plug-In . SVG Version: 6.00 Build 0)  -->
<svg version="1.1" id="Layer_1" xmlns="http://www.w3.org/2000/svg" xmlns:xlink="http://www.w3.org/1999/xlink" x="0px" y="0px"
	 viewBox="0 0 100 100" style="enable-background:new 0 0 100 100;" xml:space="preserve">
<style type="text/css">
	.st0{fill:#C4C4C4;}
</style>
<title>NOUMPROJECT</title>
<g>
	<path class="st0" d="M50,6c0.3,0,0.6,0,0.9,0C62.3,6.3,73,10.8,81.1,18.9S93.7,37.7,94,49c0.3,11.9-4.2,23.2-12.6,31.7
		C73,89.3,61.9,94,50,94c-0.3,0-0.6,0-0.9,0C37.7,93.7,27,89.2,18.9,81.1S6.3,62.3,6,51c-0.3-11.9,4.2-23.2,12.6-31.7
		C27,10.7,38.1,6,50,6 M30.1,48.1c-6.5,3.3-11.8,9-14.5,15.8l0,0.1l0,0.1c-1.9,5-0.2,10.6,4,13.7c8.9,6.6,19.5,10,30.5,10
		c11.1,0,21.6-3.5,30.6-10.1l0,0l0,0c4.2-3.2,5.7-8.6,3.9-13.6l0-0.1l0-0.1c-2.8-6.8-8-12.5-14.5-15.8c2.9-4.2,4.3-9.1,4.2-14.2
		c-0.2-12.8-10.9-23.4-23.6-23.7c-0.2,0-0.4,0-0.7,0c-6.5,0-12.6,2.6-17.2,7.3c-4.6,4.7-7,10.9-6.8,17.5
		C26,39.9,27.5,44.4,30.1,48.1 M50,0C22.1,0-0.6,23.1,0,51.1C0.6,77.8,22.2,99.4,48.9,100c0.4,0,0.7,0,1.1,0
		c27.9,0,50.6-23.1,50-51.1C99.4,22.2,77.8,0.6,51.1,0C50.7,0,50.4,0,50,0L50,0z M50,52.7c-0.1,0-0.2,0-0.3,0
		c-9.8-0.3-17.6-8.1-17.8-17.8c-0.3-10.2,7.9-18.6,18-18.6c0.2,0,0.3,0,0.5,0C60,16.5,68,24.4,68.1,34.1
		C68.4,44.3,60.1,52.7,50,52.7L50,52.7z M50,58.6c5.9,0,11.2-2.3,15.3-6c6.2,2.5,11.1,7.4,13.6,13.6c0.9,2.4,0.2,5.1-1.9,6.7
		c-7.6,5.6-16.9,8.9-27,8.9s-19.4-3.3-27-8.9c-2.1-1.5-2.8-4.3-1.9-6.7c2.5-6.2,7.4-11.1,13.6-13.6C38.7,56.3,44.1,58.6,50,58.6
		L50,58.6z"/>
</g>
</svg>
